<svg xmlns="http://www.w3.org/2000/svg" width="810" viewBox="0 0 810 810" height="810" version="1.0"><g><g><g><path d="M 211.953125 0 C 184.953125 -29.699219 159.300781 -74.925781 144.453125 -123.527344 L 245.027344 -123.527344 C 267.304688 -57.375 321.304688 4.726562 395.554688 4.726562 C 429.980469 4.726562 473.183594 -8.101562 500.183594 -45.902344 L 488.707031 -58.050781 C 467.105469 -35.101562 432.679688 -37.800781 415.804688 -76.277344 C 388.804688 -139.050781 374.628906 -219.378906 345.605469 -305.78125 C 320.628906 -381.378906 251.105469 -461.03125 114.75 -461.03125 L 114.75 -443.480469 C 145.128906 -443.480469 157.277344 -414.457031 174.828125 -357.753906 C 157.277344 -336.15625 138.378906 -311.855469 123.527344 -288.90625 C 78.300781 -220.054688 12.148438 -97.203125 12.148438 0 Z M 239.628906 -139.726562 L 140.402344 -139.726562 C 125.550781 -197.101562 126.226562 -258.527344 156.601562 -304.429688 C 164.703125 -316.578125 172.800781 -327.378906 180.902344 -338.855469 C 200.476562 -275.402344 219.378906 -201.828125 239.628906 -139.726562 Z M 239.628906 -139.726562" transform="translate(177.851 574.02)"/></g></g></g></svg>