<svg width="300" height="300" viewBox="0 0 300 300" fill="none" xmlns="http://www.w3.org/2000/svg">
<rect width="300" height="300" fill="white"/>
<path d="M271.875 46.875H28.125C22.9395 46.875 18.75 51.0645 18.75 56.25V243.75C18.75 248.936 22.9395 253.125 28.125 253.125H271.875C277.061 253.125 281.25 248.936 281.25 243.75V56.25C281.25 51.0645 277.061 46.875 271.875 46.875ZM260.156 79.3359V232.031H39.8438V79.3359L31.7578 73.0371L43.2715 58.2422L55.8105 67.998H244.219L256.758 58.2422L268.271 73.0371L260.156 79.3359V79.3359ZM244.219 67.9688L150 141.211L55.7812 67.9688L43.2422 58.2129L31.7285 73.0078L39.8145 79.3066L139.893 157.119C142.771 159.355 146.311 160.569 149.956 160.569C153.601 160.569 157.141 159.355 160.02 157.119L260.156 79.3359L268.242 73.0371L256.729 58.2422L244.219 67.9688Z" fill="black"/>
</svg>
