<svg width="300" height="300" viewBox="0 0 300 300" fill="none" xmlns="http://www.w3.org/2000/svg">
<path fill-rule="evenodd" clip-rule="evenodd" d="M150 0C67.125 0 0 67.125 0 150C0 216.375 42.9375 272.438 102.562 292.313C110.062 293.625 112.875 289.125 112.875 285.188C112.875 281.625 112.688 269.812 112.688 257.25C75 264.187 65.25 248.063 62.25 239.625C60.5625 235.313 53.25 222 46.875 218.438C41.625 215.625 34.125 208.688 46.6875 208.5C58.5 208.313 66.9375 219.375 69.75 223.875C83.25 246.562 104.812 240.187 113.437 236.25C114.75 226.5 118.688 219.938 123 216.188C89.625 212.438 54.75 199.5 54.75 142.125C54.75 125.812 60.5625 112.313 70.125 101.813C68.625 98.0625 63.375 82.6875 71.625 62.0625C71.625 62.0625 84.1875 58.125 112.875 77.4375C124.875 74.0625 137.625 72.375 150.375 72.375C163.125 72.375 175.875 74.0625 187.875 77.4375C216.562 57.9375 229.125 62.0625 229.125 62.0625C237.375 82.6875 232.125 98.0625 230.625 101.813C240.188 112.313 246 125.625 246 142.125C246 199.687 210.938 212.438 177.562 216.188C183 220.875 187.688 229.875 187.688 243.937C187.688 264 187.5 280.125 187.5 285.188C187.5 289.125 190.312 293.813 197.812 292.313C227.59 282.259 253.465 263.121 271.796 237.592C290.127 212.063 299.991 181.429 300 150C300 67.125 232.875 0 150 0Z" fill="black"/>
</svg>
