<svg width="300" height="300" viewBox="0 0 300 300" fill="none" xmlns="http://www.w3.org/2000/svg">
<g clip-path="url(#clip0_19_120)">
<path d="M150 112.8C142.642 112.8 135.45 114.982 129.333 119.069C123.215 123.157 118.447 128.967 115.631 135.764C112.816 142.562 112.079 150.041 113.515 157.258C114.95 164.474 118.493 171.102 123.695 176.305C128.898 181.507 135.526 185.05 142.742 186.485C149.959 187.921 157.438 187.184 164.236 184.369C171.033 181.553 176.843 176.785 180.931 170.667C185.018 164.55 187.2 157.358 187.2 150C187.2 145.115 186.238 140.278 184.368 135.764C182.499 131.251 179.759 127.15 176.304 123.696C172.85 120.241 168.749 117.501 164.236 115.632C159.722 113.762 154.885 112.8 150 112.8V112.8ZM298.95 76.0501C298.871 64.4665 296.738 52.9886 292.65 42.1501C289.639 34.2189 284.981 27.0164 278.982 21.0178C272.984 15.0192 265.781 10.3608 257.85 7.35001C247.011 3.26196 235.534 1.12891 223.95 1.05C204.6 -1.00583e-06 198.9 0 150 0C101.1 0 95.3998 -1.00583e-06 76.0497 1.05C64.4661 1.12891 52.9883 3.26196 42.1497 7.35001C34.2186 10.3608 27.0161 15.0192 21.0174 21.0178C15.0188 27.0164 10.3604 34.2189 7.34964 42.1501C3.26159 52.9886 1.12855 64.4665 1.04963 76.0501C-0.000367217 95.4001 -0.000366211 101.1 -0.000366211 150C-0.000366211 198.9 -0.000367217 204.6 1.04963 223.95C1.21109 235.575 3.34125 247.088 7.34964 258C10.3471 265.895 15.0016 273.056 20.9997 279C26.9726 285.035 34.1905 289.693 42.1497 292.65C52.9883 296.738 64.4661 298.871 76.0497 298.95C95.3998 300 101.1 300 150 300C198.9 300 204.6 300 223.95 298.95C235.534 298.871 247.011 296.738 257.85 292.65C265.809 289.693 273.027 285.035 279 279C284.998 273.056 289.653 265.895 292.65 258C296.734 247.109 298.867 235.582 298.95 223.95C300 204.6 300 198.9 300 150C300 101.1 300 95.4001 298.95 76.0501V76.0501ZM260.85 196.05C260.369 205.307 258.393 214.425 255 223.05C252.088 230.246 247.759 236.782 242.27 242.271C236.781 247.759 230.245 252.088 223.05 255C214.343 258.204 205.174 259.977 195.9 260.25H104.1C94.8257 259.977 85.6571 258.204 76.9497 255C69.5113 252.236 62.7939 247.826 57.2997 242.1C51.8647 236.719 47.6674 230.218 44.9997 223.05C41.783 214.352 40.0588 205.173 39.8997 195.9V150V104.1C40.0588 94.8275 41.783 85.6484 44.9997 76.9501C47.7639 69.5116 52.1738 62.7942 57.8997 57.3001C63.3047 51.8944 69.7987 47.7015 76.9497 45.0001C85.6571 41.7961 94.8257 40.0232 104.1 39.75H195.9C205.174 40.0232 214.343 41.7961 223.05 45.0001C230.488 47.7643 237.206 52.1742 242.7 57.9001C248.135 63.2813 252.332 69.7821 255 76.9501C258.204 85.6574 259.977 94.8261 260.25 104.1V150C260.25 180.9 261.3 184.05 260.85 195.9V196.05ZM236.85 84.4501C235.064 79.6049 232.248 75.2047 228.597 71.5533C224.945 67.9019 220.545 65.086 215.7 63.3001C209.047 60.994 202.04 59.8769 195 60.0001H105C97.9238 60.0692 90.9158 61.3896 84.2997 63.9001C79.5287 65.6049 75.1751 68.3058 71.5285 71.8231C67.8818 75.3404 65.0256 79.5937 63.1497 84.3001C60.9714 90.9806 59.9071 97.974 59.9997 105V195C60.1484 202.068 61.4662 209.063 63.8997 215.7C65.6857 220.545 68.5015 224.946 72.1529 228.597C75.8044 232.249 80.2045 235.064 85.0497 236.85C91.4497 239.204 98.1845 240.521 105 240.75H195C202.076 240.681 209.084 239.361 215.7 236.85C220.545 235.064 224.945 232.249 228.597 228.597C232.248 224.946 235.064 220.545 236.85 215.7C239.36 209.084 240.681 202.076 240.75 195V150V105C240.754 97.9171 239.431 90.8959 236.85 84.3001V84.4501ZM150 207.3C142.482 207.3 135.038 205.817 128.095 202.936C121.151 200.054 114.844 195.831 109.535 190.508C104.227 185.186 100.02 178.868 97.1569 171.917C94.2937 164.966 92.83 157.518 92.8497 150C92.8498 138.661 96.2142 127.577 102.517 118.15C108.82 108.724 117.778 101.38 128.257 97.0476C138.736 92.7152 150.265 91.5892 161.384 93.8123C172.503 96.0355 182.713 101.508 190.72 109.536C198.728 117.565 204.173 127.789 206.367 138.914C208.561 150.039 207.405 161.565 203.045 172.032C198.685 182.5 191.317 191.438 181.875 197.716C172.432 203.995 161.339 207.33 150 207.3V207.3ZM210 103.95C206.684 103.599 203.615 102.033 201.385 99.5547C199.155 97.0759 197.921 93.8595 197.921 90.5251C197.921 87.1907 199.155 83.9743 201.385 81.4955C203.615 79.0168 206.684 77.4511 210 77.1001C213.316 77.4511 216.384 79.0168 218.615 81.4955C220.845 83.9743 222.079 87.1907 222.079 90.5251C222.079 93.8595 220.845 97.0759 218.615 99.5547C216.384 102.033 213.316 103.599 210 103.95Z" fill="#D43377"/>
</g>
<defs>
<clipPath id="clip0_19_120">
<rect width="300" height="300" fill="white"/>
</clipPath>
</defs>
</svg>
