<svg width="300" height="300" viewBox="0 0 300 300" fill="none" xmlns="http://www.w3.org/2000/svg">
<g clip-path="url(#clip0_22_132)">
<path d="M150 112.8C142.642 112.8 135.45 114.982 129.332 119.069C123.215 123.157 118.447 128.967 115.631 135.764C112.816 142.562 112.079 150.041 113.514 157.258C114.95 164.474 118.493 171.102 123.695 176.305C128.898 181.507 135.526 185.05 142.742 186.485C149.958 187.921 157.438 187.184 164.236 184.369C171.033 181.553 176.843 176.785 180.93 170.667C185.018 164.55 187.2 157.358 187.2 150C187.2 145.115 186.238 140.278 184.368 135.764C182.499 131.251 179.758 127.15 176.304 123.696C172.85 120.241 168.749 117.501 164.236 115.632C159.722 113.762 154.885 112.8 150 112.8V112.8ZM298.95 76.0501C298.871 64.4665 296.738 52.9886 292.65 42.1501C289.639 34.2189 284.981 27.0164 278.982 21.0178C272.983 15.0192 265.781 10.3608 257.85 7.35001C247.011 3.26196 235.533 1.12891 223.95 1.05C204.6 -1.00583e-06 198.9 0 150 0C101.1 0 95.3996 -1.00583e-06 76.0496 1.05C64.466 1.12891 52.9881 3.26196 42.1496 7.35001C34.2185 10.3608 27.016 15.0192 21.0173 21.0178C15.0187 27.0164 10.3603 34.2189 7.34952 42.1501C3.26147 52.9886 1.12843 64.4665 1.04951 76.0501C-0.000489287 95.4001 -0.000488281 101.1 -0.000488281 150C-0.000488281 198.9 -0.000489287 204.6 1.04951 223.95C1.21097 235.575 3.34113 247.088 7.34952 258C10.3469 265.895 15.0015 273.056 20.9995 279C26.9724 285.035 34.1904 289.693 42.1496 292.65C52.9881 296.738 64.466 298.871 76.0496 298.95C95.3996 300 101.1 300 150 300C198.9 300 204.6 300 223.95 298.95C235.533 298.871 247.011 296.738 257.85 292.65C265.809 289.693 273.027 285.035 279 279C284.998 273.056 289.652 265.895 292.65 258C296.734 247.109 298.867 235.582 298.95 223.95C300 204.6 300 198.9 300 150C300 101.1 300 95.4001 298.95 76.0501V76.0501ZM260.85 196.05C260.368 205.307 258.393 214.425 255 223.05C252.088 230.246 247.759 236.782 242.27 242.271C236.781 247.759 230.245 252.088 223.05 255C214.342 258.204 205.174 259.977 195.9 260.25H104.1C94.8256 259.977 85.6569 258.204 76.9496 255C69.5111 252.236 62.7937 247.826 57.2996 242.1C51.8646 236.719 47.6672 230.218 44.9996 223.05C41.7829 214.352 40.0587 205.173 39.8996 195.9V150V104.1C40.0587 94.8275 41.7829 85.6484 44.9996 76.9501C47.7638 69.5116 52.1737 62.7942 57.8996 57.3001C63.3046 51.8944 69.7986 47.7015 76.9496 45.0001C85.6569 41.7961 94.8256 40.0232 104.1 39.75H195.9C205.174 40.0232 214.342 41.7961 223.05 45.0001C230.488 47.7643 237.206 52.1742 242.7 57.9001C248.135 63.2813 252.332 69.7821 255 76.9501C258.204 85.6574 259.977 94.8261 260.25 104.1V150C260.25 180.9 261.3 184.05 260.85 195.9V196.05ZM236.85 84.4501C235.064 79.6049 232.248 75.2047 228.597 71.5533C224.945 67.9019 220.545 65.086 215.7 63.3001C209.047 60.994 202.04 59.8769 195 60.0001H105C97.9236 60.0692 90.9157 61.3896 84.2996 63.9001C79.5285 65.6049 75.175 68.3058 71.5284 71.8231C67.8817 75.3404 65.0255 79.5937 63.1496 84.3001C60.9712 90.9806 59.907 97.974 59.9996 105V195C60.1483 202.068 61.4661 209.063 63.8996 215.7C65.6855 220.545 68.5014 224.946 72.1528 228.597C75.8042 232.249 80.2044 235.064 85.0496 236.85C91.4496 239.204 98.1844 240.521 105 240.75H195C202.076 240.681 209.084 239.361 215.7 236.85C220.545 235.064 224.945 232.249 228.597 228.597C232.248 224.946 235.064 220.545 236.85 215.7C239.36 209.084 240.681 202.076 240.75 195V150V105C240.754 97.9171 239.431 90.8959 236.85 84.3001V84.4501ZM150 207.3C142.482 207.3 135.038 205.817 128.095 202.936C121.151 200.054 114.844 195.831 109.535 190.508C104.227 185.186 100.02 178.868 97.1568 171.917C94.2936 164.966 92.8299 157.518 92.8496 150C92.8497 138.661 96.2141 127.577 102.517 118.15C108.82 108.724 117.778 101.38 128.257 97.0476C138.736 92.7152 150.264 91.5892 161.384 93.8123C172.503 96.0355 182.712 101.508 190.72 109.536C198.728 117.565 204.173 127.789 206.367 138.914C208.561 150.039 207.405 161.565 203.045 172.032C198.685 182.5 191.317 191.438 181.875 197.716C172.432 203.995 161.339 207.33 150 207.3V207.3ZM210 103.95C206.684 103.599 203.615 102.033 201.385 99.5547C199.155 97.0759 197.921 93.8595 197.921 90.5251C197.921 87.1907 199.155 83.9743 201.385 81.4955C203.615 79.0168 206.684 77.4511 210 77.1001C213.316 77.4511 216.384 79.0168 218.615 81.4955C220.845 83.9743 222.079 87.1907 222.079 90.5251C222.079 93.8595 220.845 97.0759 218.615 99.5547C216.384 102.033 213.316 103.599 210 103.95Z" fill="white"/>
</g>
<defs>
<clipPath id="clip0_22_132">
<rect width="300" height="300" fill="white"/>
</clipPath>
</defs>
</svg>
