<svg xmlns="http://www.w3.org/2000/svg" width="810" viewBox="0 0 810 810" height="810" version="1.0"><path fill="#5382A1" d="M 301.628906 621.09375 C 301.628906 621.09375 270.921875 638.953125 323.480469 645 C 387.164062 652.253906 419.691406 651.210938 489.859375 637.929688 C 489.859375 637.929688 508.308594 649.488281 534.085938 659.511719 C 376.789062 726.90625 178.082031 655.605469 301.628906 621.09375"/><path fill="#5382A1" d="M 282.40625 533.164062 C 282.40625 533.164062 247.96875 558.652344 300.566406 564.09375 C 368.578125 571.09375 422.296875 571.675781 515.242188 553.765625 C 515.242188 553.765625 528.105469 566.8125 548.324219 573.929688 C 358.128906 629.511719 146.300781 578.324219 282.402344 533.164062"/><path fill="#E76F00" d="M 444.445312 383.976562 C 483.207031 428.605469 434.253906 468.746094 434.253906 468.746094 C 434.253906 468.746094 532.691406 417.953125 487.484375 354.347656 C 445.257812 295.046875 412.898438 265.582031 588.15625 163.984375 C 588.15625 163.984375 313.066406 232.652344 444.445312 383.976562"/><path fill="#5382A1" d="M 652.484375 686.140625 C 652.484375 686.140625 675.214844 704.859375 627.472656 719.347656 C 536.667969 746.835938 249.550781 755.140625 169.796875 720.441406 C 141.136719 707.976562 194.902344 690.675781 211.8125 687.023438 C 229.449219 683.210938 239.53125 683.929688 239.53125 683.929688 C 207.644531 661.464844 33.441406 728 151.042969 747.070312 C 471.757812 799.046875 735.679688 723.652344 652.480469 686.140625"/><path fill="#5382A1" d="M 316.394531 442.046875 C 316.394531 442.046875 170.355469 476.722656 264.679688 489.300781 C 304.503906 494.652344 383.910156 493.441406 457.847656 487.234375 C 518.289062 482.140625 578.988281 471.300781 578.988281 471.300781 C 578.988281 471.300781 557.675781 480.441406 542.253906 490.953125 C 393.9375 529.953125 107.445312 511.8125 189.921875 471.929688 C 259.679688 438.234375 316.394531 442.046875 316.394531 442.046875"/><path fill="#5382A1" d="M 578.382812 588.417969 C 729.144531 510.117188 659.417969 434.859375 610.769531 445 C 598.855469 447.488281 593.527344 449.628906 593.527344 449.628906 C 593.527344 449.628906 597.949219 442.699219 606.417969 439.699219 C 702.667969 405.882812 776.695312 539.464844 575.335938 592.371094 C 575.335938 592.371094 577.6875 590.277344 578.382812 588.417969"/><path fill="#E76F00" d="M 487.484375 -0.0664062 C 487.484375 -0.0664062 570.984375 83.417969 408.289062 211.796875 C 277.84375 314.769531 378.558594 373.488281 408.246094 440.582031 C 332.09375 371.90625 276.214844 311.441406 313.703125 255.1875 C 368.738281 172.589844 521.175781 132.546875 487.484375 -0.0703125"/><path fill="#5382A1" d="M 331.207031 800.628906 C 475.921875 809.882812 698.125 795.488281 703.382812 727.046875 C 703.382812 727.046875 693.261719 752.976562 583.800781 773.582031 C 460.285156 796.8125 307.941406 794.117188 217.605469 779.210938 C 217.605469 779.210938 236.097656 794.511719 331.203125 800.628906"/></svg>