<svg width="300" height="300" viewBox="0 0 300 300" fill="none" xmlns="http://www.w3.org/2000/svg">
<g clip-path="url(#clip0_10_106)">
<path d="M255.613 255.618H211.162V186.005C211.162 169.405 210.866 148.036 188.044 148.036C164.892 148.036 161.35 166.123 161.35 184.796V255.613H116.9V112.461H159.572V132.025H160.169C164.44 124.723 170.611 118.716 178.025 114.644C185.439 110.571 193.819 108.586 202.273 108.9C247.325 108.9 255.632 138.534 255.632 177.087L255.613 255.618V255.618ZM66.7441 92.8945C52.4976 92.8969 40.9464 81.3492 40.9441 67.1027C40.9417 52.8563 52.4882 41.3051 66.7347 41.3027C80.9812 41.2992 92.5324 52.8469 92.5347 67.0934C92.536 73.9348 89.8195 80.4966 84.9828 85.3352C80.1462 90.1738 73.5855 92.893 66.7441 92.8945V92.8945ZM88.9699 255.619H44.4726V112.461H88.9687V255.618L88.9699 255.619ZM277.773 0.0211018H22.1367C10.0546 -0.114836 0.146436 9.56368 -0.0012207 21.6457V278.348C0.141748 290.436 10.0488 300.124 22.1355 299.998H277.773C289.886 300.148 299.831 290.46 299.999 278.348V21.6258C299.827 9.52032 289.88 -0.157023 277.773 0.00117995" fill="white"/>
</g>
<defs>
<clipPath id="clip0_10_106">
<rect width="300" height="300" fill="white"/>
</clipPath>
</defs>
</svg>
