<svg width="300" height="300" viewBox="0 0 300 300" fill="none" xmlns="http://www.w3.org/2000/svg">
<rect width="300" height="300" fill="white"/>
<path d="M131.925 78.0005L89.6374 29.188C84.7624 23.563 75.8249 23.588 70.1624 29.263L35.3874 64.1005C25.0374 74.463 22.0749 89.8505 28.0624 102.188C63.8326 176.25 123.563 236.064 197.575 271.938C209.9 277.925 225.275 274.963 235.625 264.6L270.725 229.438C276.412 223.75 276.425 214.763 270.75 209.888L221.75 167.825C216.625 163.425 208.662 164 203.525 169.15L186.475 186.225C185.602 187.14 184.453 187.743 183.204 187.942C181.956 188.141 180.676 187.924 179.562 187.325C151.693 171.277 128.575 148.128 112.562 120.238C111.963 119.122 111.746 117.841 111.944 116.59C112.143 115.339 112.747 114.188 113.662 113.313L130.662 96.3005C135.812 91.1255 136.375 83.1255 131.925 77.988V78.0005Z" stroke="black" stroke-width="25" stroke-linecap="round" stroke-linejoin="round"/>
</svg>
