<svg width="300" height="300" viewBox="0 0 300 300" fill="none" xmlns="http://www.w3.org/2000/svg">
<path d="M149.937 0C67.2625 0 0 67.275 0 149.95C0 232.7 67.2625 300 149.937 300C232.687 300 300 232.688 300 149.95C300 67.275 232.687 0 149.937 0ZM73.85 205.05C91.0178 199.791 108.87 197.103 126.825 197.075C157 197.075 186.788 204.725 212.975 219.2C214.538 220.05 215.95 222.85 216.6 226.35C217.225 229.85 216.975 233.437 215.95 235.3C215.467 236.186 214.813 236.967 214.026 237.598C213.238 238.23 212.334 238.698 211.364 238.977C210.394 239.257 209.379 239.34 208.377 239.224C207.374 239.108 206.405 238.794 205.525 238.3C186.29 227.748 165.132 221.167 143.305 218.946C121.478 216.726 99.4283 218.912 78.4625 225.375C77.5 225.686 76.4852 225.803 75.4773 225.718C74.4693 225.633 73.4882 225.349 72.5913 224.881C71.6944 224.413 70.8994 223.772 70.2528 222.994C69.6062 222.216 69.1209 221.317 68.825 220.35C67.4875 215.975 70.25 206.225 73.85 205.05ZM67.3125 149.8C86.7068 144.531 106.715 141.862 126.813 141.862C162.988 141.862 198.9 150.613 230.687 167.188C232.925 168.313 234.563 170.238 235.313 172.588C235.692 173.774 235.829 175.025 235.718 176.266C235.606 177.507 235.247 178.712 234.663 179.813C231.825 185.363 228.5 189.1 226.413 189.1C224.89 189.093 223.39 188.725 222.038 188.025C192.653 172.684 159.973 164.729 126.825 164.85C108.387 164.813 90.0282 167.273 72.25 172.162C71.064 172.487 69.8258 172.574 68.606 172.42C67.3862 172.265 66.2087 171.872 65.1408 171.263C64.073 170.654 63.1356 169.84 62.3822 168.868C61.6288 167.897 61.0742 166.786 60.75 165.6C59.35 160.325 62.5625 151.1 67.3125 149.8V149.8ZM65.625 113.725C64.218 114.086 62.7535 114.165 61.3159 113.957C59.8783 113.749 58.4961 113.259 57.2491 112.514C56.0022 111.769 54.915 110.784 54.0506 109.617C53.1861 108.449 52.5614 107.123 52.2125 105.712C50.675 99.4875 54.5625 92.2625 60.2125 90.8375C82.0063 85.4696 104.367 82.7458 126.813 82.725C169.938 82.725 211.262 92.425 249.612 111.563C252.247 112.873 254.254 115.176 255.192 117.965C256.129 120.754 255.921 123.802 254.612 126.437C252.825 130.037 248.95 133.913 244.675 133.913C242.999 133.906 241.344 133.535 239.825 132.825C204.757 115.233 166.045 106.13 126.813 106.25C106.375 106.25 85.7875 108.762 65.625 113.725V113.725Z" fill="white"/>
</svg>
