<svg xmlns="http://www.w3.org/2000/svg" width="810" viewBox="0 0 810 810" height="810" version="1.0"><path fill="#CFD8DC" d="M 381.386719 167.609375 C 348.320312 118.015625 341.171875 51.738281 339.613281 24.503906 C 255.617188 42.667969 172.164062 75.25 176.984375 99.246094 C 177.59375 102.261719 181.398438 105.886719 187.71875 109.410156 L 177.835938 127.089844 C 165.765625 120.324219 158.984375 112.53125 157.140625 103.214844 C 151.691406 76.058594 182.453125 51.496094 251.140625 28.105469 C 298.039062 12.128906 345.34375 2.59375 347.347656 2.207031 L 359.4375 -0.222656 L 359.4375 12.148438 C 359.4375 13 359.964844 98.980469 398.238281 156.390625 Z M 381.386719 167.609375"/><path fill="#CFD8DC" d="M 415.144531 810 L 410.0625 810 C 244.175781 810 59.554688 757.898438 37.746094 670.699219 C 24.441406 617.441406 67.960938 558.597656 163.578125 500.578125 L 174.109375 517.875 C 88.066406 570.097656 46.617188 622.605469 57.410156 665.800781 C 76.34375 741.496094 251.300781 788.675781 404.757812 789.730469 C 423.003906 762.453125 521.03125 602.214844 465.082031 387.300781 L 484.664062 382.199219 C 548.429688 627.0625 419.5 804.148438 418.203125 805.910156 Z M 415.144531 810"/><path fill="#CFD8DC" d="M 115.039062 735.195312 C 104.125 735.195312 98.71875 734 97.828125 733.777344 C 94.265625 732.910156 91.46875 730.175781 90.496094 726.652344 C 89.503906 723.128906 90.515625 719.339844 93.109375 716.769531 C 94.566406 715.3125 238.847656 570.808594 258.328125 453.964844 L 278.296875 457.285156 C 261.550781 557.804688 162.566406 672.402344 123.261719 714.601562 C 162.527344 712.355469 261.671875 693.96875 452 587.433594 C 303.464844 571.152344 279.976562 452.242188 279.734375 450.96875 L 299.640625 447.300781 C 300.589844 452.285156 324.464844 569.023438 486.832031 569.023438 C 486.890625 569.023438 486.929688 569.023438 486.992188 569.023438 C 491.589844 569.023438 495.578125 572.101562 496.753906 576.515625 C 497.96875 580.933594 496.023438 585.609375 492.074219 587.917969 C 264.566406 719.726562 154.246094 735.175781 115.039062 735.195312 Z M 115.039062 735.195312"/><path fill="#CFD8DC" d="M 208.046875 783.675781 C 203.855469 783.675781 200.050781 781.082031 198.570312 777.09375 C 196.972656 772.820312 198.429688 767.980469 202.15625 765.308594 C 202.84375 764.800781 238.867188 738.214844 277.203125 679.691406 C 262.460938 673.171875 247.535156 665.558594 232.734375 656.667969 C 214.75 645.875 201.164062 634.289062 191.019531 622.425781 C 138.976562 636.152344 90.941406 641.582031 48.761719 637.996094 L 50.464844 617.828125 C 88.453125 621.046875 131.644531 616.550781 178.464844 604.867188 C 146.609375 550.4375 175.851562 496.410156 176.257812 495.679688 L 193.953125 505.542969 C 192.597656 508.011719 168.339844 553.535156 198.996094 599.359375 C 243.566406 586.5625 291.113281 567.628906 340.320312 543.023438 C 351.640625 505.867188 360.492188 463.605469 365.128906 415.933594 C 365.453125 412.675781 367.316406 409.777344 370.148438 408.140625 C 372.984375 406.5 376.449219 406.355469 379.425781 407.714844 C 380.070312 408.015625 445.519531 437.90625 492.90625 457.40625 C 496.347656 458.824219 498.738281 462.023438 499.121094 465.730469 C 499.527344 469.4375 497.847656 473.039062 494.746094 475.144531 C 448.394531 506.734375 402.347656 534.132812 357.492188 556.996094 C 343.277344 602.054688 325.679688 639.554688 307.699219 670.214844 C 382.664062 698.21875 447.726562 698.644531 448.558594 698.644531 C 453.175781 698.644531 457.203125 701.765625 458.359375 706.238281 C 459.511719 710.714844 457.507812 715.390625 453.476562 717.640625 C 361.542969 768.710938 215.195312 783.085938 209.019531 783.675781 C 208.695312 783.65625 208.371094 783.675781 208.046875 783.675781 Z M 296.84375 687.832031 C 275.785156 720.515625 255.089844 743.984375 239.617188 759.3125 C 280.078125 753.359375 351.011719 740.320312 409.878906 716 C 381.691406 712.535156 340.886719 704.839844 296.84375 687.832031 Z M 212.96875 616.226562 C 220.925781 624.164062 230.851562 631.921875 243.140625 639.3125 C 258.046875 648.261719 273.171875 655.855469 288.097656 662.296875 C 303.363281 636.699219 318.492188 605.980469 331.472656 569.792969 C 290.546875 589.273438 250.816406 604.828125 212.96875 616.226562 Z M 383.777344 431.914062 C 379.625 467.714844 373.226562 500.378906 365.289062 530.125 C 398.90625 512.203125 433.207031 491.730469 467.796875 468.847656 C 436.429688 455.5625 401.941406 440.113281 383.777344 431.914062 Z M 383.777344 431.914062"/><path fill="#CFD8DC" d="M 276.898438 153.898438 C 274.527344 153.898438 272.179688 153.050781 270.316406 151.46875 C 237.714844 123.566406 199.339844 66.785156 197.722656 64.375 C 195.109375 60.507812 195.515625 55.34375 198.652344 51.902344 C 201.769531 48.4375 206.914062 47.628906 210.964844 49.835938 C 211.1875 49.894531 229.957031 57.632812 357.109375 78.8125 C 360.773438 79.421875 363.792969 81.972656 365.007812 85.457031 C 366.242188 88.9375 365.453125 92.824219 362.980469 95.582031 C 327.382812 135.128906 282.40625 152.542969 280.503906 153.253906 C 279.328125 153.675781 278.09375 153.898438 276.898438 153.898438 Z M 230.789062 75.855469 C 243.566406 93.046875 261.972656 116.277344 278.820312 131.929688 C 289.171875 127.210938 312.375 115.363281 334.386719 95.519531 C 282.082031 86.589844 250.167969 80.230469 230.789062 75.855469 Z M 230.789062 75.855469"/><path fill="#B71C1C" d="M 356.257812 433.351562 C 354.882812 433.351562 353.484375 433.066406 352.1875 432.5 C 348.160156 430.71875 345.726562 426.546875 346.195312 422.171875 C 352.105469 366.503906 266.691406 344.167969 265.820312 343.964844 C 262.296875 343.074219 259.503906 340.339844 258.550781 336.839844 C 257.601562 333.335938 258.59375 329.570312 261.164062 326.996094 C 265.355469 322.804688 365.230469 223.761719 490.535156 169.371094 C 494.039062 167.851562 498.007812 168.417969 500.964844 170.789062 C 503.902344 173.179688 505.257812 177.003906 504.488281 180.691406 C 480.472656 297.007812 368.609375 424.582031 363.871094 429.949219 C 361.867188 432.15625 359.074219 433.351562 356.257812 433.351562 Z M 287.652344 329.769531 C 311.628906 338.78125 353.625 359.640625 364.257812 397.730469 C 393.597656 361.117188 456.234375 276.777344 479.621094 196.566406 C 390.785156 239.292969 315.980469 303.730469 287.652344 329.769531 Z M 287.652344 329.769531"/><path fill="#B71C1C" d="M 178.789062 513.539062 L 169.167969 495.71875 C 207.300781 475.167969 250.976562 437.339844 286.761719 393.375 C 256.304688 414.234375 238.867188 428.511719 238.320312 428.976562 L 225.382812 413.382812 C 226.171875 412.734375 261.101562 384.082031 319.160156 348.179688 C 335.097656 322.542969 347.347656 296.175781 353.644531 270.90625 C 354.71875 266.613281 355.652344 262.460938 356.398438 258.449219 C 317.417969 244.539062 281.453125 236.296875 256.75 232.753906 C 253.003906 232.226562 249.886719 229.65625 248.628906 226.113281 C 247.375 222.566406 248.203125 218.597656 250.734375 215.84375 C 252.457031 213.980469 293.585938 169.917969 344.980469 145.71875 C 348.96875 143.835938 353.746094 144.765625 356.746094 148.027344 C 358.101562 149.507812 385.902344 180.730469 378.835938 245.328125 C 402.226562 254.441406 426.324219 265.519531 449.53125 278.699219 C 505.398438 253.589844 568.84375 230.992188 636.417969 217.34375 C 639.898438 216.65625 643.769531 217.910156 646.15625 220.746094 C 648.527344 223.582031 649.175781 227.488281 647.839844 230.929688 C 621.511719 298.402344 550.921875 370.472656 547.925781 373.511719 C 545.878906 375.578125 543.085938 376.609375 540.167969 376.507812 C 537.273438 376.347656 534.601562 374.96875 532.777344 372.703125 C 510.097656 344.1875 480.453125 320.578125 448.476562 301.359375 C 404.433594 321.691406 365.429688 343.441406 333.375 363.101562 C 292.472656 426.949219 230.726562 485.574219 178.789062 513.539062 Z M 470.652344 291.519531 C 496.773438 308.367188 521.09375 328.171875 541.203125 351.214844 C 557.96875 333.03125 598.207031 287.0625 621.027344 241.421875 C 567.363281 253.773438 516.578125 271.652344 470.652344 291.519531 Z M 375.617188 265.71875 C 374.949219 269.019531 374.179688 272.402344 373.328125 275.84375 C 369.078125 292.835938 362.3125 310.289062 353.644531 327.707031 C 375.839844 315.027344 400.402344 301.949219 426.910156 289.269531 C 409.941406 280.28125 392.628906 272.464844 375.617188 265.71875 Z M 279.410156 216.109375 C 301.90625 220.523438 329.628906 227.730469 359.214844 238.097656 C 362.292969 200.777344 352.207031 177.917969 346.113281 167.792969 C 318.25 182.332031 293.847656 202.785156 279.410156 216.109375 Z M 279.410156 216.109375"/><path fill="#B71C1C" d="M 279.449219 313.875 C 279.449219 402.570312 205.539062 473.039062 152.28125 524.476562 C 143.371094 533.183594 113.199219 534.601562 113.199219 534.601562 C 120.691406 526.90625 129.195312 518.804688 138.308594 510.097656 C 188.933594 461.09375 259.199219 394.066406 259.199219 313.875 C 259.199219 218.902344 220.925781 181.441406 190.753906 151.46875 C 177.390625 137.902344 166.050781 124.941406 159.164062 109.148438 L 165.441406 106.515625 C 172.328125 109.550781 180.226562 112.996094 186.300781 115.628906 C 191.160156 122.714844 197.640625 129.601562 205.132812 137.09375 C 236.113281 168.074219 279.449219 210.601562 279.449219 313.875 Z M 279.449219 313.875"/><path fill="#B71C1C" d="M 783.371094 340.078125 C 783.371094 340.078125 771.121094 341.820312 767.675781 342.226562 C 590.289062 361.867188 407.226562 412.898438 302.535156 454.816406 C 264.667969 470.003906 225.382812 488.429688 189.539062 509.085938 C 189.335938 509.289062 189.136719 509.289062 188.730469 509.488281 C 167.671875 521.640625 116.4375 546.75 74.925781 568.824219 C 135.675781 504.226562 249.480469 454.410156 294.839844 436.183594 C 397.507812 395.078125 573.886719 345.464844 747.425781 324.203125 C 726.976562 300.308594 676.957031 249.683594 578.542969 212.019531 C 521.03125 189.742188 433.550781 177.1875 356.398438 166.050781 C 233.683594 148.433594 163.824219 136.6875 157.140625 103.273438 C 155.722656 96.59375 156.734375 89.910156 159.773438 83.429688 C 166.453125 94.363281 175.972656 102.058594 182.25 106.515625 C 185.289062 108.539062 187.515625 109.753906 188.324219 110.160156 L 188.527344 110.363281 C 217.28125 125.550781 294.839844 136.6875 359.4375 146.003906 C 437.601562 157.34375 526.09375 170.101562 585.832031 192.984375 C 724.949219 246.644531 772.941406 323.394531 774.96875 326.632812 C 776.789062 329.671875 783.371094 340.078125 783.371094 340.078125 Z M 783.371094 340.078125"/></svg>